<svg width="64" height="64" viewBox="0 0 64 64" fill="none" xmlns="http://www.w3.org/2000/svg">
<path d="M9.03536 40.671V27.1433C9.03536 25.0531 9.02358 23.4796 9 22.4227H13.8447C13.939 23.0803 14.0097 23.8084 14.0568 24.6069C15.2592 22.869 16.9565 22 19.149 22C21.4358 22 23.0035 22.9277 23.8522 24.783C25.2196 22.9277 27.1056 22 29.5102 22C31.2076 22 32.5985 22.5637 33.683 23.691C34.7674 24.7948 35.3097 26.4623 35.3097 28.6934V40.671H30.3589V29.3275C30.3589 27.1433 29.4631 26.0513 27.6714 26.0513C26.6341 26.0513 25.8797 26.4035 25.4082 27.1081C24.9367 27.7892 24.7009 28.8343 24.7009 30.2434V40.671H19.7148V29.5036C19.7148 28.4468 19.5262 27.613 19.149 27.0024C18.7718 26.3918 18.0881 26.0865 17.098 26.0865C16.0607 26.0865 15.2945 26.4388 14.7994 27.1433C14.3044 27.8244 14.0568 28.94 14.0568 30.49V40.671H9.03536Z" fill="#111111"/>
<path d="M55.9646 22.4227V35.3868C55.9646 37.8293 55.9764 39.5907 56 40.671H51.0493C51.0257 40.4831 50.9785 39.7786 50.9078 38.5573C49.8941 40.2483 48.2085 41.0938 45.851 41.0938C43.9414 41.0938 42.4444 40.5184 41.36 39.3676C40.2991 38.2168 39.7686 36.5376 39.7686 34.3299V22.4227H44.8255V33.3083C44.8255 35.7508 45.7685 36.972 47.6545 36.972C48.8096 36.972 49.6348 36.608 50.1298 35.88C50.6485 35.1519 50.9078 33.9072 50.9078 32.1458V22.4227H55.9646Z" fill="#111111"/>
</svg>
