<svg width="512" height="512" viewBox="0 0 512 512" fill="none" xmlns="http://www.w3.org/2000/svg">
<path d="M0 289.614C1.6265 294.783 5.69543 296.749 12.2068 295.51C14.5395 295.066 73.4217 188.837 113.717 144.187C125.165 129.51 131.42 138.764 133.772 194.045C135.548 213.739 136.814 240.721 138.489 255.298C139.058 271.412 139.636 285.624 140.222 297.934C140.835 381.896 141.185 425.292 141.274 428.122C141.724 442.377 129.136 456.884 168.43 454.799C180.403 439.408 188.469 378.719 202.855 335.047C212.08 313.447 211.072 317.691 211.921 315.489C216.881 304.321 219.693 305.606 220.356 319.345C221.075 364.326 225.823 398.778 234.602 422.7C244.752 459.259 263.741 454.651 270.914 449.69C283.902 445.113 304.707 411.815 333.326 349.794C335.05 344.533 350.964 293.276 355.529 350.962C365.134 389.369 383.748 402.606 411.37 390.672C442.474 377.234 473.92 328.447 505.707 244.31C509.623 240.391 511.666 237.716 511.835 236.286C513.033 226.212 507.597 218.291 498.999 218.878C494.625 218.911 493.12 222.732 494.487 230.341C474.57 281.054 450.312 326.622 429.996 349.118C406.124 372.931 390.584 374.09 383.378 352.597C371.62 317.532 379.855 222.536 384.413 153.878C386.858 139.716 385.868 130.23 381.444 125.422C364.584 117.587 357.258 118.982 354.962 155.887C350.335 210.139 338.567 261.056 319.659 308.638C298.788 365.078 285.187 397.209 278.858 405.033C267.552 422.878 260.482 424.737 257.647 410.611C250.874 376.867 245.081 302.655 249.976 246.935C258.535 187.322 263.056 142.976 263.54 113.897C261.686 84.1938 265.762 76.5334 266.114 72.565C265.15 60.9348 260.344 55.4287 251.697 56.0468C246.597 57.4028 233.384 63.6411 241.468 80.08C248.029 85.5091 246.873 86.9922 228.699 144.135C202.785 245.802 186.165 304.181 178.837 319.273C173.442 335.709 169.652 337.543 167.468 324.775C164.834 273.912 163.876 234.887 164.594 207.698C163.184 141.536 153.588 105.156 135.805 98.559C119.298 93.5588 106.785 115.954 93.1168 139.375L0 289.614Z" fill="#0F0F11"/>
</svg>
