<svg width="240" height="240" viewBox="0 0 180 180">
  <path 
        d="M118.2 43.2c-.7.7-1.2 2-1.2 2.9 0 2.2-11.9 15.7-27.6 31-7.1 7-19 18.8-26.4 26.4-15.1 15.3-22.7 22.1-23.8 21.1-.6-.6 4.3-10.7 18-36.9 4.4-8.5 7.8-18.5 7.8-23.3 0-4.6-3.1-7.7-6.8-6.8-1.5.3-7 3-12.2 5.9-5.2 2.9-12.2 6.7-15.5 8.5-3.3 1.8-7.3 4.1-9 5-1.6.9-6.6 3.6-11 6C1.7 87.7 0 88.9 0 90c0 2.7 4.9.9 20.2-7.6 17.7-9.7 32.1-16 33.9-14.8 1.5.9.4 4.6-5.3 16.9-8.4 18.4-18.4 37.9-26 50.8-1.5 2.6-2.8 5-2.8 5.2 0 .2-1.4 2.8-3.1 5.7l-3.1 5.2 2.7 2.3c1.4 1.3 3.2 2.3 4 2.3.8 0 13.3-11.9 27.9-26.5C63 114.9 75.3 103 75.9 103c1.7 0 1.4 1.1-2.8 10.1-5.2 11.3-7.1 17.1-7.7 24.4-.7 7.5.7 9.9 5.8 9.7 8.4-.3 20.9-8.1 41.1-25.6 6.9-5.9 9-7.5 10-7.6 1.1 0 .8 3.1-.8 7.5-3.2 8.9-1.1 16.5 5.1 18.5 8.7 2.9 21.7-2.1 39.3-15.3 5.8-4.4 11.1-8.1 11.8-8.4 1.6-.6 2.5-3.6 1.7-5.7-.9-2.3-1.6-2-5.7 1.8-1.9 1.8-7.5 6-12.4 9.3-21.2 14.3-34.7 16.3-32.9 5 .7-4.4 7-17.5 11.7-24.5 1.6-2.4 2.9-4.5 2.9-4.7 0-.3 3.8-6.2 8.3-13.2 9.5-14.5 10-15.6 8.4-17.6-2.6-3.2-4.6-2.7-8.4 2-20.1 24.6-41.7 45.9-63.8 63-5.3 4.1-12.3 7.5-13.6 6.7-3.3-2 12.4-35.2 24.2-50.9 5.2-6.9 15.9-22.8 23.2-34.3 2-3.3 3.7-6.9 3.7-8 0-3-4.5-4.3-6.8-2z"></path>
</svg>