<svg width="240" height="240" viewBox="0 0 240 240">
  <path 
        d=" M 0.09 106.035 Q -0.543 109.202 3.258 110.469 C 4.166 110.772 45.38 85.449 68.184 77.848 C 75.046 74.997 75.468 79.431 65.65 99.067 C 62.483 106.246 57.732 115.853 55.515 121.237 Q 51.16 129.788 47.914 136.366 Q 23.981 180.231 23.21 181.729 C 20.623 186.762 13.392 189.33 27.644 196.298 C 34.829 193.303 49.361 173.83 62.843 161.497 C 82.714 142.083 94.207 130.986 97.321 128.205 Q 106.189 120.287 102.072 129.155 Q 89.457 152.77 87.186 167.794 C 83.723 182.461 91.304 184.58 94.787 184.263 Q 113.473 182.996 153.696 146.257 C 155.317 144.77 170.798 130.105 161.297 151.008 Q 155.279 173.811 173.332 175.712 Q 193.659 177.851 234.774 143.407 Q 237.977 142.517 238.48 141.823 C 240.842 138.563 240.451 134.752 237.308 133.272 Q 234.985 132.005 233.51 136.366 C 216.722 150.058 199.395 161.117 187.901 164.943 Q 168.399 170.325 170.798 157.026 C 173.408 142.562 194.607 111.223 209.437 88.299 Q 214.821 81.648 213.871 77.848 C 209.437 71.83 206.587 70.88 198.669 83.232 Q 162.881 125.671 139.137 144.877 Q 111.796 168.115 106.189 170.328 Q 95.056 176.293 97.638 168.111 C 101.75 155.08 114.001 128.205 126.459 109.836 Q 148.206 81.331 156.863 66.344 C 161.93 55.678 164.842 53.818 165.731 52.511 Q 168.581 46.176 163.831 43.959 C 161.772 43.432 155.913 43.009 155.596 50.294 C 156.863 53.461 126.135 84.07 108.723 100.334 Q 65.65 145.624 57.415 151.325 Q 49.814 158.292 52.348 151.008 Q 65.65 123.771 73.884 109.836 Q 92.254 74.997 84.757 66.344 C 79.902 61.379 71.178 66.698 61.849 72.147 L 0.09 106.035 Z " fill="2f2f2f"></path>
</svg>