<svg width="512" height="512" viewBox="0 0 512 512">
  <path d=" M 0.158 289.56 Q 2.597 297.188 12.361 295.36 C 14.693 294.923 73.557 190.419 113.84 146.494 C 125.284 132.055 131.537 141.159 133.889 195.543 C 135.664 214.917 136.93 241.461 138.604 255.801 Q 139.457 279.58 140.337 297.745 Q 141.255 421.643 141.388 425.819 C 141.838 439.843 129.254 454.114 168.536 452.063 C 180.505 436.922 188.569 377.218 202.95 334.255 C 212.172 313.006 211.165 317.181 212.013 315.015 Q 219.451 298.534 220.446 318.808 Q 221.524 385.184 234.687 420.485 C 244.834 456.45 263.817 451.917 270.988 447.037 Q 290.465 440.283 333.381 348.763 C 335.104 343.587 351.013 293.162 355.577 349.912 Q 369.98 406.587 411.401 388.977 Q 458.042 369.148 505.709 244.991 Q 511.581 239.208 511.835 237.098 C 513.032 227.187 507.598 219.395 499.003 219.972 Q 492.443 220.021 494.492 231.249 C 474.581 281.139 450.331 325.967 430.021 348.098 Q 394.224 383.237 383.417 351.52 C 371.663 317.025 379.896 223.571 384.452 156.028 Q 388.118 135.129 381.484 128.034 C 364.629 120.326 357.306 121.698 355.01 158.004 Q 348.072 238.061 319.718 308.275 Q 288.421 391.56 278.93 403.105 Q 261.976 429.437 257.725 408.592 C 250.954 375.396 245.163 302.389 250.057 247.574 Q 262.891 159.606 263.617 116.696 C 261.763 87.475 265.838 79.939 266.19 76.035 Q 264.744 58.873 251.777 59.785 C 246.679 61.119 233.47 67.256 241.551 83.428 C 248.11 88.769 246.955 90.228 228.786 146.443 Q 189.928 296.467 178.94 318.737 Q 170.849 342.991 167.574 324.15 Q 163.624 249.095 164.701 208.974 Q 162.587 111.342 135.921 101.607 C 119.419 96.688 106.91 118.72 93.246 141.76 L 0.158 289.56 Z " fill="#212121"></path>
</svg>