<svg width="378" height="378" viewBox="0 0 378 378">
  <path
        d=" M 0.143 167.005 Q -0.855 171.993 5.131 173.989 C 6.561 174.465 71.474 134.582 107.389 122.61 C 118.197 118.121 118.862 125.104 103.399 156.031 C 98.41 167.338 90.928 182.469 87.436 190.949 Q 80.578 204.417 75.465 214.776 Q 37.77 283.863 36.557 286.223 C 32.482 294.15 21.093 298.195 43.54 309.169 C 54.856 304.451 77.744 273.782 98.978 254.358 C 130.275 223.781 148.376 206.302 153.281 201.923 Q 167.248 189.452 160.763 203.419 Q 140.894 240.612 137.319 264.275 C 131.863 287.377 143.803 290.713 149.29 290.214 Q 178.721 288.219 242.071 230.355 C 244.624 228.012 269.007 204.916 254.043 237.838 Q 244.565 273.753 272.998 276.746 Q 305.013 280.116 369.769 225.866 Q 374.814 224.465 375.605 223.372 C 379.326 218.237 378.711 212.234 373.76 209.904 Q 370.102 207.908 367.778 214.776 C 341.337 236.341 314.047 253.759 295.944 259.786 Q 265.229 268.261 269.007 247.315 C 273.117 224.535 306.506 175.175 329.864 139.071 Q 338.344 128.596 336.847 122.61 C 329.864 113.132 325.374 111.636 312.904 131.09 Q 256.537 197.932 219.14 228.181 Q 176.078 264.782 167.248 268.266 Q 149.713 277.661 153.78 264.774 C 160.256 244.252 179.552 201.923 199.172 172.991 Q 233.425 128.097 247.059 104.492 C 255.04 87.692 259.627 84.764 261.026 82.704 Q 265.516 72.728 258.033 69.236 C 254.791 68.405 245.563 67.74 245.064 79.212 C 247.059 84.201 198.663 132.41 171.238 158.026 Q 103.399 229.358 90.429 238.337 Q 78.458 249.311 82.448 237.838 Q 103.399 194.939 116.368 172.991 Q 145.3 118.121 133.493 104.492 C 125.846 96.671 112.105 105.05 97.413 113.631 L 0.143 167.005 Z " fill="#212121"></path>
</svg>