<svg width="272" height="67" viewBox="0 0 272 67" focusable="false" aria-label="Sara Soueidan">
        <path d="M25.56 41.828c.952-.771 1.881-1.564 2.788-2.38.907-.816 1.881-1.587 2.924-2.312.725-.589 1.473-1.145 2.244-1.666.771-.521 1.496-1.099 2.176-1.734.272-.091.533-.272.782-.544s.533-.272.85 0c.091.408-.011.703-.306.884-.295.181-.555.385-.782.612-1.677 1.405-3.4 2.754-5.168 4.046-1.768 1.292-3.4 2.731-4.896 4.318.453 1.133.669 2.527.646 4.182-.023 1.655-.238 3.049-.646 4.182-.771 2.493-1.825 4.681-3.162 6.562-1.337 1.881-2.845 3.615-4.522 5.202l-1.36 1.088c-.453.363-.929.703-1.428 1.02-.499.227-1.065.476-1.7.748s-1.292.295-1.972.068c-.544-.181-.895-.476-1.054-.884-.159-.408-.215-.861-.17-1.36.045-.499.159-1.009.34-1.53.181-.521.363-.986.544-1.394.635-1.541 1.405-2.969 2.312-4.284.907-1.315 1.791-2.584 2.652-3.808 1.269-1.768 2.55-3.457 3.842-5.066 1.292-1.609 2.573-3.162 3.842-4.658-.816-1.632-1.983-2.901-3.502-3.808-1.519-.907-3.185-1.677-4.998-2.312-1.813-.635-3.695-1.201-5.644-1.7-1.949-.499-3.763-1.156-5.44-1.972-1.088-.499-2.085-1.156-2.992-1.972-.907-.816-1.405-1.927-1.496-3.332-.091-.997-.011-1.927.238-2.788.249-.861.555-1.677.918-2.448 1.043-2.221 2.278-4.239 3.706-6.052 1.428-1.813 2.89-3.581 4.386-5.304 1.043-1.133 2.108-2.233 3.196-3.298s2.221-2.074 3.4-3.026c1.269-.816 2.607-1.677 4.012-2.584 1.405-.907 3.06-1.451 4.964-1.632 1.088-.091 2.04.034 2.856.374.816.34 1.519.805 2.108 1.394.589.589 1.077 1.292 1.462 2.108.385.816.714 1.655.986 2.516.544 1.723.827 3.751.85 6.086.023 2.335-.011 4.59-.102 6.766-.045.317.045.533.272.646.227.113.295.329.204.646.091.317.034.487-.17.51-.204.023-.329.147-.374.374-.045.453-.147.85-.306 1.19-.159.34-.419.578-.782.714h-.476c-.453-.045-.759-.272-.918-.68-.159-.408-.249-.895-.272-1.462-.023-.567 0-1.145.068-1.734s.125-1.111.17-1.564c.091-1.179.159-2.403.204-3.672.045-1.269.034-2.505-.034-3.706s-.215-2.335-.442-3.4-.567-1.983-1.02-2.754c-.227-.363-.487-.703-.782-1.02-.295-.317-.623-.589-.986-.816l-.714-.272c-.249-.091-.51-.159-.782-.204-.997 0-1.927.113-2.788.34-.861.227-1.666.533-2.414.918-.748.385-1.451.816-2.108 1.292-.657.476-1.281.941-1.87 1.394-2.357 1.859-4.42 3.808-6.188 5.848-.997 1.043-1.927 2.119-2.788 3.23-.861 1.111-1.7 2.255-2.516 3.434-.363.544-.737 1.133-1.122 1.768-.385.635-.759 1.292-1.122 1.972-.227.408-.442.884-.646 1.428-.204.544-.351 1.099-.442 1.666-.091.567-.113 1.133-.068 1.7s.204 1.077.476 1.53c.635.907 1.451 1.598 2.448 2.074.997.476 2.04.895 3.128 1.258 1.632.589 3.309 1.122 5.032 1.598 1.723.476 3.377 1.031 4.964 1.666 1.587.635 3.026 1.405 4.318 2.312 1.292.907 2.346 2.063 3.162 3.468zm-8.296 20.196c.907-.861 1.791-1.779 2.652-2.754.861-.975 1.655-2.051 2.38-3.23.907-1.496 1.666-3.185 2.278-5.066.612-1.881.737-3.978.374-6.29l-.068-.068c-.091.091-.136.159-.136.204-1.859 2.176-3.649 4.397-5.372 6.664-1.723 2.267-3.332 4.669-4.828 7.208-.408.861-.873 1.745-1.394 2.652-.521.907-.714 1.949-.578 3.128 1.043 0 1.904-.283 2.584-.85.68-.567 1.383-1.099 2.108-1.598zm44.812-30.124c.091.227.045.419-.136.578-.181.159-.34.283-.476.374-.408.453-.805.918-1.19 1.394l-1.19 1.462c-.499.68-.986 1.36-1.462 2.04-.476.68-.963 1.36-1.462 2.04-.453.635-.929 1.292-1.428 1.972l-1.496 2.04c-.635.861-1.337 1.666-2.108 2.414-.771.748-1.791 1.235-3.06 1.462-.499 0-.907-.102-1.224-.306-.317-.204-.589-.465-.816-.782-.453-.861-.714-1.836-.782-2.924-.068-1.088-.057-2.21.034-3.366.091-1.156.215-2.312.374-3.468.159-1.156.261-2.255.306-3.298-1.043.907-2.063 1.983-3.06 3.23-.997 1.247-2.131 2.346-3.4 3.298-.544.363-1.122.714-1.734 1.054-.612.34-1.303.465-2.074.374-.227-.091-.431-.181-.612-.272-.181-.091-.34-.204-.476-.34-.317-.453-.499-.907-.544-1.36.045-1.36.397-2.697 1.054-4.012.657-1.315 1.394-2.312 2.21-2.992.544-.499 1.235-.805 2.074-.918.839-.113 1.507.215 2.006.986.091.136.193.317.306.544.113.227.193.465.238.714.045.249.057.476.034.68-.023.204-.125.329-.306.374-.272.091-.465.045-.578-.136-.113-.181-.215-.385-.306-.612-.091-.227-.193-.442-.306-.646-.113-.204-.306-.306-.578-.306-.272-.045-.544.023-.816.204-.272.181-.521.397-.748.646-.227.249-.419.521-.578.816-.159.295-.306.533-.442.714-.317.589-.589 1.156-.816 1.7-.227.544-.34 1.224-.34 2.04.635-.091 1.179-.306 1.632-.646.453-.34.884-.691 1.292-1.054.861-.725 1.655-1.462 2.38-2.21.725-.748 1.496-1.553 2.312-2.414l1.156-1.292c.408-.453.861-.771 1.36-.952l.068-.034.068-.034c.453 0 .771.045.952.136.589.499.839 1.224.748 2.176l-.272 2.856c-.136 1.088-.272 2.21-.408 3.366-.136 1.156-.204 2.346-.204 3.57 0 .499.023 1.031.068 1.598.045.567.272 1.031.68 1.394.997-.227 1.779-.635 2.346-1.224.567-.589 1.167-1.179 1.802-1.768 1.133-1.315 2.199-2.652 3.196-4.012.997-1.36 2.017-2.697 3.06-4.012.272-.363.544-.691.816-.986.272-.295.544-.623.816-.986.272-.181.589-.465.952-.85.363-.385.725-.397 1.088-.034zm-.612 0c.317.136.521.363.612.68.091.317.159.669.204 1.054l.136 1.122c.045.363.159.657.34.884.363-.499.827-1.009 1.394-1.53.567-.521 1.371-.646 2.414-.374.499.091.997.261 1.496.51s.997.442 1.496.578c.771.227 1.575.419 2.414.578.839.159 1.757.193 2.754.102 1.541-.091 2.788-.51 3.74-1.258.952-.748 1.881-1.575 2.788-2.482.453-.045.714 0 .782.136.068.136.057.329-.034.578-.091.249-.238.499-.442.748-.204.249-.374.442-.51.578-.725.771-1.564 1.451-2.516 2.04s-2.04.975-3.264 1.156c-1.315.181-2.629.159-3.944-.068s-2.493-.521-3.536-.884c-.363-.136-.748-.295-1.156-.476-.408-.181-.793-.227-1.156-.136-.408.091-.748.431-1.02 1.02s-.499 1.088-.68 1.496c-.499 1.088-.873 2.119-1.122 3.094-.249.975-.555 2.074-.918 3.298-.136.499-.34 1.031-.612 1.598-.272.567-.657.85-1.156.85-.317 0-.555-.125-.714-.374-.159-.249-.261-.555-.306-.918-.045-.363-.057-.737-.034-1.122.023-.385.034-.759.034-1.122.091-1.587.215-3.026.374-4.318.159-1.292.351-2.641.578-4.046l.136-.986c.045-.34.113-.657.204-.952.091-.295.227-.544.408-.748.181-.204.453-.306.816-.306zm0 6.868c.136-.453.306-.895.51-1.326.204-.431.351-.85.442-1.258-.181.091-.329.068-.442-.068-.113-.136-.215-.227-.306-.272 0 .499-.045.997-.136 1.496-.091.499-.113.975-.068 1.428zm43.86-6.868c.091.227.045.419-.136.578-.181.159-.34.283-.476.374-.408.453-.805.918-1.19 1.394l-1.19 1.462c-.499.68-.986 1.36-1.462 2.04-.476.68-.963 1.36-1.462 2.04-.453.635-.929 1.292-1.428 1.972l-1.496 2.04c-.635.861-1.337 1.666-2.108 2.414-.771.748-1.791 1.235-3.06 1.462-.499 0-.907-.102-1.224-.306-.317-.204-.589-.465-.816-.782-.453-.861-.714-1.836-.782-2.924-.068-1.088-.057-2.21.034-3.366.091-1.156.215-2.312.374-3.468.159-1.156.261-2.255.306-3.298-1.043.907-2.063 1.983-3.06 3.23-.997 1.247-2.131 2.346-3.4 3.298-.544.363-1.122.714-1.734 1.054-.612.34-1.303.465-2.074.374-.227-.091-.431-.181-.612-.272-.181-.091-.34-.204-.476-.34-.317-.453-.499-.907-.544-1.36.045-1.36.397-2.697 1.054-4.012.657-1.315 1.394-2.312 2.21-2.992.544-.499 1.235-.805 2.074-.918.839-.113 1.507.215 2.006.986.091.136.193.317.306.544.113.227.193.465.238.714.045.249.057.476.034.68-.023.204-.125.329-.306.374-.272.091-.465.045-.578-.136-.113-.181-.215-.385-.306-.612-.091-.227-.193-.442-.306-.646-.113-.204-.306-.306-.578-.306-.272-.045-.544.023-.816.204-.272.181-.521.397-.748.646-.227.249-.419.521-.578.816-.159.295-.306.533-.442.714-.317.589-.589 1.156-.816 1.7-.227.544-.34 1.224-.34 2.04.635-.091 1.179-.306 1.632-.646.453-.34.884-.691 1.292-1.054.861-.725 1.655-1.462 2.38-2.21.725-.748 1.496-1.553 2.312-2.414l1.156-1.292c.408-.453.861-.771 1.36-.952l.068-.034.068-.034c.453 0 .771.045.952.136.589.499.839 1.224.748 2.176l-.272 2.856c-.136 1.088-.272 2.21-.408 3.366-.136 1.156-.204 2.346-.204 3.57 0 .499.023 1.031.068 1.598.045.567.272 1.031.68 1.394.997-.227 1.779-.635 2.346-1.224.567-.589 1.167-1.179 1.802-1.768 1.133-1.315 2.199-2.652 3.196-4.012.997-1.36 2.017-2.697 3.06-4.012.272-.363.544-.691.816-.986.272-.295.544-.623.816-.986.272-.181.589-.465.952-.85.363-.385.725-.397 1.088-.034zm26.996 9.928c.952-.771 1.881-1.564 2.788-2.38.907-.816 1.881-1.587 2.924-2.312.725-.589 1.473-1.145 2.244-1.666.771-.521 1.496-1.099 2.176-1.734.272-.091.533-.272.782-.544s.533-.272.85 0c.091.408-.011.703-.306.884-.295.181-.555.385-.782.612-1.677 1.405-3.4 2.754-5.168 4.046-1.768 1.292-3.4 2.731-4.896 4.318.453 1.133.669 2.527.646 4.182-.023 1.655-.238 3.049-.646 4.182-.771 2.493-1.825 4.681-3.162 6.562-1.337 1.881-2.845 3.615-4.522 5.202l-1.36 1.088c-.453.363-.929.703-1.428 1.02-.499.227-1.065.476-1.7.748s-1.292.295-1.972.068c-.544-.181-.895-.476-1.054-.884-.159-.408-.215-.861-.17-1.36.045-.499.159-1.009.34-1.53.181-.521.363-.986.544-1.394.635-1.541 1.405-2.969 2.312-4.284.907-1.315 1.791-2.584 2.652-3.808 1.269-1.768 2.55-3.457 3.842-5.066 1.292-1.609 2.573-3.162 3.842-4.658-.816-1.632-1.983-2.901-3.502-3.808-1.519-.907-3.185-1.677-4.998-2.312-1.813-.635-3.695-1.201-5.644-1.7-1.949-.499-3.763-1.156-5.44-1.972-1.088-.499-2.085-1.156-2.992-1.972-.907-.816-1.405-1.927-1.496-3.332-.091-.997-.011-1.927.238-2.788.249-.861.555-1.677.918-2.448 1.043-2.221 2.278-4.239 3.706-6.052 1.428-1.813 2.89-3.581 4.386-5.304 1.043-1.133 2.108-2.233 3.196-3.298s2.221-2.074 3.4-3.026c1.269-.816 2.607-1.677 4.012-2.584 1.405-.907 3.06-1.451 4.964-1.632 1.088-.091 2.04.034 2.856.374.816.34 1.519.805 2.108 1.394.589.589 1.077 1.292 1.462 2.108.385.816.714 1.655.986 2.516.544 1.723.827 3.751.85 6.086.023 2.335-.011 4.59-.102 6.766-.045.317.045.533.272.646.227.113.295.329.204.646.091.317.034.487-.17.51-.204.023-.329.147-.374.374-.045.453-.147.85-.306 1.19-.159.34-.419.578-.782.714h-.476c-.453-.045-.759-.272-.918-.68-.159-.408-.249-.895-.272-1.462-.023-.567 0-1.145.068-1.734s.125-1.111.17-1.564c.091-1.179.159-2.403.204-3.672.045-1.269.034-2.505-.034-3.706s-.215-2.335-.442-3.4-.567-1.983-1.02-2.754c-.227-.363-.487-.703-.782-1.02-.295-.317-.623-.589-.986-.816l-.714-.272c-.249-.091-.51-.159-.782-.204-.997 0-1.927.113-2.788.34-.861.227-1.666.533-2.414.918-.748.385-1.451.816-2.108 1.292-.657.476-1.281.941-1.87 1.394-2.357 1.859-4.42 3.808-6.188 5.848-.997 1.043-1.927 2.119-2.788 3.23-.861 1.111-1.7 2.255-2.516 3.434-.363.544-.737 1.133-1.122 1.768-.385.635-.759 1.292-1.122 1.972-.227.408-.442.884-.646 1.428-.204.544-.351 1.099-.442 1.666-.091.567-.113 1.133-.068 1.7s.204 1.077.476 1.53c.635.907 1.451 1.598 2.448 2.074.997.476 2.04.895 3.128 1.258 1.632.589 3.309 1.122 5.032 1.598 1.723.476 3.377 1.031 4.964 1.666 1.587.635 3.026 1.405 4.318 2.312 1.292.907 2.346 2.063 3.162 3.468zm-8.296 20.196c.907-.861 1.791-1.779 2.652-2.754.861-.975 1.655-2.051 2.38-3.23.907-1.496 1.666-3.185 2.278-5.066.612-1.881.737-3.978.374-6.29l-.068-.068c-.091.091-.136.159-.136.204-1.859 2.176-3.649 4.397-5.372 6.664-1.723 2.267-3.332 4.669-4.828 7.208-.408.861-.873 1.745-1.394 2.652-.521.907-.714 1.949-.578 3.128 1.043 0 1.904-.283 2.584-.85.68-.567 1.383-1.099 2.108-1.598zm24.14-29.92c.499.589.941 1.383 1.326 2.38.385.997.635 2.04.748 3.128.113 1.088.079 2.142-.102 3.162s-.612 1.847-1.292 2.482c-.453.363-.952.691-1.496.986-.544.295-1.133.442-1.768.442-1.088 0-1.949-.351-2.584-1.054-.635-.703-.997-1.575-1.088-2.618-.091-1.451.113-2.777.612-3.978s.997-2.278 1.496-3.23c-.227-.816-.238-1.575-.034-2.278.204-.703.691-1.099 1.462-1.19.227 0 .431.057.612.17.181.113.34.17.476.17.227 0 .431-.057.612-.17.181-.113.34-.17.476-.17.499 0 .907.181 1.224.544.317.363.385.771.204 1.224-.272.272-.567.272-.884 0zm-2.856-.272c.045-.091.068-.079.068.034s-.023.102-.068-.034zm1.428 1.292c-.453.771-.941 1.7-1.462 2.788-.521 1.088-.827 2.244-.918 3.468-.091.635-.079 1.247.034 1.836s.374.997.782 1.224c.408.227.827.261 1.258.102.431-.159.805-.351 1.122-.578.544-.544.884-1.224 1.02-2.04.136-.816.147-1.666.034-2.55-.113-.884-.329-1.723-.646-2.516-.317-.793-.68-1.417-1.088-1.87h-.068l-.068.136zm22.576 18.836c-.499-.045-.805-.295-.918-.748l-.306-1.224c-.227-1.269-.329-2.663-.306-4.182.023-1.519.057-3.003.102-4.454.045-2.04.136-4.103.272-6.188s.295-4.148.476-6.188c-1.179 1.859-2.267 3.695-3.264 5.508-.997 1.813-2.199 3.513-3.604 5.1-.499.499-1.043 1.031-1.632 1.598-.589.567-1.292.895-2.108.986-.363.045-.748-.011-1.156-.17-.408-.159-.725-.329-.952-.51-.952-.907-1.473-2.335-1.564-4.284v-1.7c0-.68.045-1.337.136-1.972.091-.635.249-1.201.476-1.7.227-.499.544-.793.952-.884.816-.091 1.417.091 1.802.544.385.453.487 1.065.306 1.836-.045.181-.17.261-.374.238l-.442-.034c-.045.363-.091.816-.136 1.36-.045.544-.091 1.043-.136 1.496 0 .635.057 1.349.17 2.142.113.793.374 1.235.782 1.326.227.091.544-.011.952-.306.408-.295.725-.555.952-.782.816-.771 1.553-1.632 2.21-2.584.657-.952 1.303-1.881 1.938-2.788.68-.997 1.281-1.983 1.802-2.958.521-.975 1.099-1.983 1.734-3.026.136-.181.272-.408.408-.68.136-.272.306-.51.51-.714.204-.204.431-.329.68-.374.249-.045.51.045.782.272.227.181.374.51.442.986s.091 1.02.068 1.632c-.023.612-.068 1.213-.136 1.802s-.102 1.065-.102 1.428c-.091 1.315-.181 2.459-.272 3.434-.091.975-.159 1.983-.204 3.026-.091 2.131-.159 4.216-.204 6.256-.045 2.04 0 4.012.136 5.916l.272.952c.091.317-.091.521-.544.612zm6.868-16.048c-.181.272-.329.612-.442 1.02-.113.408-.193.839-.238 1.292-.045.453-.011.873.102 1.258.113.385.306.691.578.918 1.133.453 2.244.476 3.332.068 1.088-.408 2.085-.816 2.992-1.224 1.451-.68 2.697-1.405 3.74-2.176.907-.544 1.791-1.133 2.652-1.768l2.584-1.904c.272-.227.555-.453.85-.68.295-.227.623-.295.986-.204.181.453.102.816-.238 1.088-.34.272-.623.521-.85.748-.317.272-.646.521-.986.748-.34.227-.623.453-.85.68-.816.635-1.7 1.281-2.652 1.938-.952.657-1.949 1.326-2.992 2.006-.997.635-2.029 1.258-3.094 1.87-1.065.612-2.233.986-3.502 1.122-1.269.136-2.335-.102-3.196-.714-.861-.612-1.36-1.507-1.496-2.686-.091-.816-.045-1.541.136-2.176.181-.635.385-1.247.612-1.836-.136-.227-.34-.408-.612-.544-.272-.136-.408-.385-.408-.748.227-.227.476-.283.748-.17l.748.306c.589-.861 1.315-1.779 2.176-2.754.861-.975 1.881-1.598 3.06-1.87.499-.091.963-.023 1.394.204.431.227.714.589.85 1.088.045.725-.102 1.371-.442 1.938s-.737 1.031-1.19 1.394c-.544.499-1.167.907-1.87 1.224-.703.317-1.53.499-2.482.544zm.952-1.768c.771-.317 1.451-.703 2.04-1.156.272-.227.544-.487.816-.782.272-.295.385-.623.34-.986-.725.272-1.349.68-1.87 1.224-.521.544-.963 1.111-1.326 1.7zm17.952-9.452c-.363.181-.725.272-1.088.272-.272-.272-.408-.521-.408-.748 0-.272.113-.465.34-.578.227-.113.453-.147.68-.102.227.045.408.17.544.374.136.204.113.465-.068.782zm-2.04 21.692c.816-.181 1.485-.544 2.006-1.088.521-.544 1.009-1.111 1.462-1.7.499-.589.963-1.179 1.394-1.768.431-.589.85-1.201 1.258-1.836.453-.635.873-1.258 1.258-1.87.385-.612.782-1.235 1.19-1.87l.646-1.02c.204-.317.419-.612.646-.884.227-.272.419-.601.578-.986.159-.385.487-.533.986-.442.181.317.125.623-.17.918-.295.295-.51.578-.646.85-.499.952-1.043 1.87-1.632 2.754-.589.884-1.156 1.802-1.7 2.754-.771 1.179-1.53 2.357-2.278 3.536-.748 1.179-1.621 2.267-2.618 3.264-.363.317-.771.623-1.224.918-.453.295-1.065.374-1.836.238-.272-.181-.499-.317-.68-.408-.544-.453-.929-1.167-1.156-2.142-.227-.975-.34-2.04-.34-3.196 0-1.156.079-2.323.238-3.502.159-1.179.329-2.176.51-2.992.091-.408.204-.895.34-1.462.136-.567.317-1.077.544-1.53.227-.453.51-.771.85-.952.34-.181.759-.113 1.258.204.181.363.272.748.272 1.156 0 .227-.068.351-.204.374-.136.023-.227.102-.272.238-.317.907-.567 1.859-.748 2.856-.181.997-.34 2.085-.476 3.264-.091 1.043-.147 2.165-.17 3.366-.023 1.201.215 2.187.714 2.958zm23.528-27.948c-.997 2.448-1.961 4.907-2.89 7.378s-1.915 4.93-2.958 7.378c0 .272-.023.555-.068.85-.045.295-.113.555-.204.782-.091.227-.227.419-.408.578-.181.159-.34.329-.476.51-.181.317-.317.657-.408 1.02-.091.363-.227.725-.408 1.088-.68 1.632-1.394 3.253-2.142 4.862s-1.598 3.162-2.55 4.658c-.227.317-.465.657-.714 1.02-.249.363-.533.691-.85.986-.317.295-.657.533-1.02.714-.363.181-.771.227-1.224.136-.635-.091-1.088-.385-1.36-.884s-.453-1.099-.544-1.802c-.091-.703-.102-1.428-.034-2.176.068-.748.17-1.439.306-2.074.499-2.856 1.36-5.44 2.584-7.752 1.224-2.312 2.675-4.261 4.352-5.848.363-.272.771-.51 1.224-.714.453-.204.997-.261 1.632-.17.363.181.691.363.986.544.295.181.533.453.714.816 1.315-2.992 2.641-6.233 3.978-9.724 1.337-3.491 2.618-6.913 3.842-10.268.136-.453.306-.986.51-1.598.204-.612.487-.963.85-1.054.272-.091.487-.068.646.068.159.136.306.317.442.544 0 1.133-.102 2.267-.306 3.4-.204 1.133-.397 2.289-.578 3.468-.544 3.355-.963 6.845-1.258 10.472-.295 3.627-.419 7.344-.374 11.152.045 3.853.181 7.627.408 11.322.227 3.695.476 7.401.748 11.118.045.544.068 1.145.068 1.802v2.006c0 .272.011.567.034.884.023.317.011.623-.034.918-.045.295-.147.544-.306.748-.159.204-.397.306-.714.306-.317 0-.544-.102-.68-.306-.136-.204-.227-.453-.272-.748-.045-.295-.079-.589-.102-.884-.023-.295-.102-.555-.238-.782.045-.952.011-1.961-.102-3.026-.113-1.065-.215-2.142-.306-3.23-.227-3.083-.431-6.256-.612-9.52-.181-3.264-.295-6.539-.34-9.826-.045-3.287.011-6.539.17-9.758.159-3.219.487-6.347.986-9.384zm-11.968 16.184c-.453.635-.85 1.292-1.19 1.972-.34.68-.646 1.337-.918 1.972-.635 1.496-1.156 3.049-1.564 4.658-.408 1.609-.499 3.275-.272 4.998.499-.227.929-.623 1.292-1.19l1.02-1.598c.363-.499.691-1.043.986-1.632.295-.589.601-1.179.918-1.768.453-.816.895-1.689 1.326-2.618.431-.929.827-1.847 1.19-2.754.136-.317.295-.635.476-.952.181-.317.295-.612.34-.884.227-1.269.113-2.38-.34-3.332l-.068-.068c-.635.227-1.235.669-1.802 1.326s-1.031 1.281-1.394 1.87zm45.152-2.72c.091.227.045.419-.136.578-.181.159-.34.283-.476.374-.408.453-.805.918-1.19 1.394l-1.19 1.462c-.499.68-.986 1.36-1.462 2.04-.476.68-.963 1.36-1.462 2.04-.453.635-.929 1.292-1.428 1.972l-1.496 2.04c-.635.861-1.337 1.666-2.108 2.414-.771.748-1.791 1.235-3.06 1.462-.499 0-.907-.102-1.224-.306-.317-.204-.589-.465-.816-.782-.453-.861-.714-1.836-.782-2.924-.068-1.088-.057-2.21.034-3.366.091-1.156.215-2.312.374-3.468.159-1.156.261-2.255.306-3.298-1.043.907-2.063 1.983-3.06 3.23-.997 1.247-2.131 2.346-3.4 3.298-.544.363-1.122.714-1.734 1.054-.612.34-1.303.465-2.074.374-.227-.091-.431-.181-.612-.272-.181-.091-.34-.204-.476-.34-.317-.453-.499-.907-.544-1.36.045-1.36.397-2.697 1.054-4.012.657-1.315 1.394-2.312 2.21-2.992.544-.499 1.235-.805 2.074-.918.839-.113 1.507.215 2.006.986.091.136.193.317.306.544.113.227.193.465.238.714.045.249.057.476.034.68-.023.204-.125.329-.306.374-.272.091-.465.045-.578-.136-.113-.181-.215-.385-.306-.612-.091-.227-.193-.442-.306-.646-.113-.204-.306-.306-.578-.306-.272-.045-.544.023-.816.204-.272.181-.521.397-.748.646-.227.249-.419.521-.578.816-.159.295-.306.533-.442.714-.317.589-.589 1.156-.816 1.7-.227.544-.34 1.224-.34 2.04.635-.091 1.179-.306 1.632-.646.453-.34.884-.691 1.292-1.054.861-.725 1.655-1.462 2.38-2.21.725-.748 1.496-1.553 2.312-2.414l1.156-1.292c.408-.453.861-.771 1.36-.952l.068-.034.068-.034c.453 0 .771.045.952.136.589.499.839 1.224.748 2.176l-.272 2.856c-.136 1.088-.272 2.21-.408 3.366-.136 1.156-.204 2.346-.204 3.57 0 .499.023 1.031.068 1.598.045.567.272 1.031.68 1.394.997-.227 1.779-.635 2.346-1.224.567-.589 1.167-1.179 1.802-1.768 1.133-1.315 2.199-2.652 3.196-4.012.997-1.36 2.017-2.697 3.06-4.012.272-.363.544-.691.816-.986.272-.295.544-.623.816-.986.272-.181.589-.465.952-.85.363-.385.725-.397 1.088-.034zm-.408 7.752h-.068l.034.102.034-.102c.317-.725.612-1.462.884-2.21s.589-1.439.952-2.074c.181-.272.351-.589.51-.952.159-.363.34-.725.544-1.088.204-.363.442-.68.714-.952.272-.272.589-.431.952-.476.408-.045.748.045 1.02.272.272.227.521.476.748.748.317.68.544 1.439.68 2.278s.317 1.689.544 2.55c.181.816.385 1.609.612 2.38.227.771.703 1.315 1.428 1.632.771-.091 1.439-.317 2.006-.68.567-.363 1.099-.725 1.598-1.088.544-.408 1.054-.816 1.53-1.224.476-.408.963-.839 1.462-1.292.499-.408.986-.839 1.462-1.292.476-.453.963-.907 1.462-1.36.227-.181.453-.374.68-.578.227-.204.476-.419.748-.646l.816-.646c.317-.249.612-.215.884.102.045.363-.079.657-.374.884-.295.227-.555.453-.782.68-.771.68-1.507 1.383-2.21 2.108-.703.725-1.439 1.405-2.21 2.04-.499.408-.997.839-1.496 1.292-.499.453-1.043.884-1.632 1.292-.635.499-1.371.986-2.21 1.462s-1.734.533-2.686.17c-.725-.408-1.258-.997-1.598-1.768-.34-.771-.612-1.609-.816-2.516-.204-.907-.397-1.825-.578-2.754-.181-.929-.476-1.779-.884-2.55-.68.725-1.235 1.564-1.666 2.516-.431.952-.827 1.949-1.19 2.992-.136.363-.306.827-.51 1.394-.204.567-.397 1.122-.578 1.666-.181.499-.374 1.043-.578 1.632-.204.589-.555.907-1.054.952-.363 0-.646-.136-.85-.408-.204-.272-.351-.623-.442-1.054-.091-.431-.136-.895-.136-1.394v-1.36c.045-1.587.159-3.015.34-4.284.181-1.269.385-2.561.612-3.876.045-.317.113-.646.204-.986.091-.34.204-.646.34-.918.136-.272.306-.499.51-.68.204-.181.442-.249.714-.204.408.045.691.363.85.952.159.589.261 1.043.306 1.36-.091.181-.227.261-.408.238l-.408-.034c-.181 1.269-.34 2.539-.476 3.808-.136 1.269-.249 2.584-.34 3.944z" fill="currentColor" fill-rule="nonzero"></path>
    </svg>