<svg width="400" height="400" viewBox="0 0 400 400" fill="none" xmlns="http://www.w3.org/2000/svg">
<path d="M63.211 255.454H93.1749V194.135C93.1749 175.251 99.0833 167.613 111.322 167.613C124.194 167.613 126.937 176.948 126.937 188.194V255.454H156.69V192.649C156.69 175.887 161.754 167.4 174.415 167.4C186.865 167.4 190.452 177.161 190.452 187.133V255.454H219.994V183.314C219.994 154.882 204.379 143 185.388 143C167.452 143 158.167 150.851 151.626 159.762C147.827 151.275 139.176 143 123.561 143C107.524 143 98.6613 150.638 93.1749 158.701C92.9639 154.458 92.3309 148.304 91.9088 145.546H63C63.211 155.094 63.211 164.43 63.211 173.978V255.454Z" fill="#212121"/>
<path d="M336.523 180.98C336.523 154.67 320.486 143.212 291.366 143C258.026 143 245.998 158.701 244.521 178.221H273.219C274.485 170.159 277.439 164.854 290.1 164.854C304.238 164.854 306.981 172.493 306.981 180.343V186.921H291.366C259.292 186.921 239.457 198.59 239.457 223.627C239.457 240.601 250.429 258 276.806 258C296.219 258 303.605 250.786 307.614 244.633C307.614 247.391 308.247 253.332 309.091 255.454H338C337.367 252.908 336.523 237.631 336.523 227.022V180.98ZM306.981 208.351C306.981 222.779 304.66 236.358 285.458 236.358C274.485 236.358 269.632 229.568 269.632 221.718C269.632 211.109 276.384 205.38 294.742 205.38H306.981V208.351Z" fill="#212121"/>
</svg>
